<svg width="18" height="18" viewBox="0 0 14 14" fill="none" xmlns="http://www.w3.org/2000/svg">
<path d="M5.36364 1V2.63636M8.63636 1V2.63636M5.36364 11.3636V13M8.63636 11.3636V13M11.3636 5.36364H13M11.3636 8.09091H13M1 5.36364H2.63636M1 8.09091H2.63636M3.72727 2.63636H10.2727C10.8752 2.63636 11.3636 3.12478 11.3636 3.72727V10.2727C11.3636 10.8752 10.8752 11.3636 10.2727 11.3636H3.72727C3.12478 11.3636 2.63636 10.8752 2.63636 10.2727V3.72727C2.63636 3.12478 3.12478 2.63636 3.72727 2.63636ZM5.36364 5.36364H8.63636V8.63636H5.36364V5.36364Z" stroke="#56CCF2" stroke-linecap="round" stroke-linejoin="round"/>
</svg>
