<svg width="65" height="42" viewBox="0 0 65 42" fill="none" xmlns="http://www.w3.org/2000/svg">
<path d="M15.1111 20.2V17C15.1111 15.9391 15.5208 14.9217 16.2501 14.1716C16.9794 13.4214 17.9686 13 19 13C20.0314 13 21.0206 13.4214 21.7499 14.1716C22.4792 14.9217 22.8889 15.9391 22.8889 17V20.2M21 1H43.8571C54.9028 1 63.8571 9.9543 63.8571 21C63.8571 32.0457 54.9028 41 43.8571 41H21C9.9543 41 1 32.0457 1 21C1 9.9543 9.9543 1 21 1ZM13.5556 20.2H24.4444C25.3036 20.2 26 20.9163 26 21.8V27.4C26 28.2837 25.3036 29 24.4444 29H13.5556C12.6964 29 12 28.2837 12 27.4V21.8C12 20.9163 12.6964 20.2 13.5556 20.2Z" stroke="#56CCF2" stroke-linecap="round" stroke-linejoin="round"/>
</svg>
