<svg width="18" height="18" viewBox="0 0 17 14" fill="none" xmlns="http://www.w3.org/2000/svg">
<path d="M8.33473 3.66667C8.33473 2.95942 8.02562 2.28115 7.47541 1.78105C6.9252 1.28095 6.17895 1 5.40084 1H1V11H6.13431C6.7179 11 7.27758 11.2107 7.69024 11.5858C8.1029 11.9609 8.33473 12.4696 8.33473 13M8.33473 3.66667V13M8.33473 3.66667C8.33473 2.95942 8.64383 2.28115 9.19404 1.78105C9.74425 1.28095 10.4905 1 11.2686 1H15.6695V11H10.5351C9.95156 11 9.39187 11.2107 8.97921 11.5858C8.56656 11.9609 8.33473 12.4696 8.33473 13" stroke="#56CCF2" stroke-linecap="round" stroke-linejoin="round"/>
</svg>
