<svg width="98" height="20" viewBox="0 0 98 20" fill="none" xmlns="http://www.w3.org/2000/svg">
<path d="M46.9343 1.0967L46.9343 1.09671L41.4347 10.0525L35.9352 1.09671L35.9352 1.09671C35.7533 0.800505 35.4306 0.62 35.083 0.62H34.9128C34.1308 0.62 33.6514 1.47718 34.0607 2.14348L40.2868 12.2773V17.42C40.2868 17.9723 40.7345 18.42 41.2868 18.42H41.5107C42.063 18.42 42.5107 17.9723 42.5107 17.42V12.2773L48.7368 2.14348C49.1461 1.47719 48.6667 0.62 47.8847 0.62H47.7865C47.4389 0.62 47.1162 0.800504 46.9343 1.0967ZM9.712 18.54C12.0114 18.54 14.1343 17.83 15.6892 16.391C16.108 16.0034 16.0798 15.3738 15.7149 14.9975L15.6295 14.9094C15.2372 14.5049 14.6181 14.519 14.2237 14.8573C12.9622 15.9396 11.4625 16.412 9.76 16.412C5.73055 16.412 2.724 13.4584 2.724 9.52C2.724 5.58164 5.73055 2.628 9.76 2.628C11.4668 2.628 12.9652 3.08265 14.224 4.15941C14.6183 4.49668 15.2371 4.51124 15.6295 4.10661L15.7149 4.0185C16.0797 3.64229 16.1083 3.01227 15.6886 2.62477C14.1316 1.18728 12.0076 0.5 9.712 0.5C4.45497 0.5 0.5 4.33688 0.5 9.52C0.5 14.7031 4.45497 18.54 9.712 18.54ZM31.8721 18.42C32.6855 18.42 33.1586 17.5006 32.6858 16.8388L29.4575 12.3192C29.4573 12.3189 29.4572 12.3186 29.4571 12.3185C29.457 12.3171 29.4571 12.3134 29.459 12.3074C29.4642 12.2913 29.477 12.2769 29.4939 12.27C31.7751 11.333 33.0797 9.4001 33.0797 6.784C33.0797 4.87938 32.3922 3.31509 31.1002 2.23621C29.8199 1.16709 28.0011 0.62 25.8117 0.62H20.2877C19.7354 0.62 19.2877 1.06771 19.2877 1.62V17.42C19.2877 17.9723 19.7354 18.42 20.2877 18.42H20.5117C21.064 18.42 21.5117 17.9723 21.5117 17.42V12.924H25.8117C26.302 12.924 26.7574 12.8908 27.2024 12.8387C27.2063 12.8382 27.2092 12.8389 27.211 12.8397L27.2122 12.8403L27.2122 12.8404L30.8952 18.0009C31.0828 18.2639 31.386 18.42 31.7091 18.42H31.8721ZM21.5117 10.844V2.724L25.8117 2.724C27.5435 2.724 28.7926 3.1232 29.6011 3.7987C30.3955 4.46244 30.8317 5.4491 30.8317 6.784C30.8317 8.1059 30.3961 9.09349 29.6004 9.76091C28.7912 10.4395 27.5419 10.844 25.8117 10.844H21.5117ZM57.4523 0.62H51.9283C51.376 0.62 50.9283 1.06771 50.9283 1.62V17.42C50.9283 17.9723 51.376 18.42 51.9283 18.42H52.1523C52.7046 18.42 53.1523 17.9723 53.1523 17.42V12.924H57.4523C59.6417 12.924 61.4601 12.3769 62.7402 11.3113C64.032 10.2359 64.7203 8.67768 64.7203 6.784C64.7203 4.87938 64.0328 3.31509 62.7408 2.23621C61.4605 1.16709 59.6417 0.62 57.4523 0.62ZM57.4523 10.82H53.1523V2.724L57.4523 2.724C59.1841 2.724 60.4332 3.1232 61.2417 3.7987C62.0362 4.46244 62.4723 5.4491 62.4723 6.784C62.4723 8.10563 62.037 9.08641 61.2425 9.74769C60.4337 10.4208 59.1841 10.82 57.4523 10.82ZM70.4802 17.42C70.4802 17.9723 70.928 18.42 71.4802 18.42H71.7042C72.2565 18.42 72.7042 17.9723 72.7042 17.42V2.724L77.7523 2.724C78.3045 2.724 78.7523 2.27628 78.7523 1.724V1.62C78.7523 1.06772 78.3045 0.62 77.7523 0.62H65.4323C64.88 0.62 64.4323 1.06772 64.4323 1.62V1.724C64.4323 2.27628 64.88 2.724 65.4323 2.724H70.4802V17.42ZM88.1813 18.54C93.4365 18.54 97.4173 14.7049 97.4173 9.52C97.4173 4.33508 93.4365 0.5 88.1813 0.5C82.9003 0.5 78.9453 4.3609 78.9453 9.52C78.9453 14.6791 82.9003 18.54 88.1813 18.54ZM88.1813 16.412C84.1529 16.412 81.1693 13.4834 81.1693 9.52C81.1693 5.55662 84.1529 2.628 88.1813 2.628C92.1847 2.628 95.1693 5.55557 95.1693 9.52C95.1693 13.4844 92.1847 16.412 88.1813 16.412Z" fill="#56CCF2" stroke="#56CCF2"/>
</svg>
