<svg width="18" height="18" viewBox="0 0 17 14" fill="none" xmlns="http://www.w3.org/2000/svg">
<path d="M11.6667 13V11.6667C11.6667 10.9594 11.3857 10.2811 10.8856 9.78105C10.3855 9.28095 9.70724 9 9 9H3.66667C2.95942 9 2.28115 9.28095 1.78105 9.78105C1.28095 10.2811 1 10.9594 1 11.6667V13M15.6667 13V11.6667C15.6662 11.0758 15.4696 10.5018 15.1076 10.0349C14.7456 9.56791 14.2388 9.23438 13.6667 9.08667M11 1.08667C11.5736 1.23353 12.082 1.56713 12.4451 2.03487C12.8082 2.50261 13.0052 3.07789 13.0052 3.67C13.0052 4.26211 12.8082 4.83739 12.4451 5.30513C12.082 5.77287 11.5736 6.10647 11 6.25333M9 3.66667C9 5.13943 7.80609 6.33333 6.33333 6.33333C4.86057 6.33333 3.66667 5.13943 3.66667 3.66667C3.66667 2.19391 4.86057 1 6.33333 1C7.80609 1 9 2.19391 9 3.66667Z" stroke="#56CCF2" stroke-linecap="round" stroke-linejoin="round"/>
</svg>
